<svg width="35" height="32" viewBox="0 0 35 32" fill="none" xmlns="http://www.w3.org/2000/svg">
<path d="M6.21007 9.39698H25.7099C26.3634 9.39698 26.8412 10.0135 26.6783 10.6464L25.1438 16.6054C24.8025 17.9308 23.6073 18.8573 22.2386 18.8573H7.8608M0 3.975H3.83352C4.8159 3.975 5.65284 4.68847 5.80832 5.65847L8.3658 21.6143C8.52128 22.5843 9.35821 23.2978 10.3406 23.2978H24.5639" stroke="white" stroke-width="1.5"/>
<path d="M11.8181 26.9568C12.8017 26.9568 13.6374 27.7846 13.6375 28.8532C13.6375 29.922 12.8017 30.7497 11.8181 30.7497C10.8347 30.7495 9.99976 29.9218 9.99976 28.8532C9.99983 27.7848 10.8348 26.957 11.8181 26.9568Z" stroke="white" stroke-width="1.5"/>
<path d="M23.1206 26.9568C24.1041 26.9568 24.9399 27.7846 24.9399 28.8532C24.9399 29.922 24.1042 30.7497 23.1206 30.7497C22.1372 30.7495 21.3022 29.9218 21.3022 28.8532C21.3023 27.7848 22.1373 26.957 23.1206 26.9568Z" stroke="white" stroke-width="1.5"/>
<ellipse cx="28" cy="7.45086" rx="7" ry="6.95086" fill="#E8AA31"/>
</svg>
