<svg width="23" height="26" viewBox="0 0 23 26" fill="none" xmlns="http://www.w3.org/2000/svg">
<path d="M11.2517 13.9707C11.2777 13.9707 11.3037 13.9707 11.3349 13.9707C11.3453 13.9707 11.3557 13.9707 11.3661 13.9707C11.3817 13.9707 11.4026 13.9707 11.4182 13.9707C12.9425 13.9448 14.1755 13.4116 15.0859 12.3917C17.0889 10.1449 16.7559 6.29313 16.7195 5.92556C16.5894 3.16619 15.2784 1.84604 14.1963 1.22997C13.3899 0.769207 12.4483 0.520708 11.3974 0.5H11.3609C11.3557 0.5 11.3453 0.5 11.3401 0.5H11.3089C10.7314 0.5 9.59729 0.593187 8.50997 1.20926C7.41744 1.82533 6.0856 3.14548 5.95554 5.92556C5.91912 6.29313 5.58616 10.1449 7.58912 12.3917C8.49436 13.4116 9.72735 13.9448 11.2517 13.9707ZM7.34461 6.05498C7.34461 6.03945 7.34981 6.02392 7.34981 6.01357C7.52149 2.30162 10.1696 1.90298 11.3037 1.90298H11.3245C11.3349 1.90298 11.3505 1.90298 11.3661 1.90298C12.7708 1.93405 15.1588 2.50352 15.32 6.01357C15.32 6.0291 15.32 6.04463 15.3252 6.05498C15.3304 6.09122 15.6946 9.61162 14.0402 11.465C13.3847 12.2002 12.5107 12.5625 11.3609 12.5729C11.3505 12.5729 11.3453 12.5729 11.3349 12.5729C11.3245 12.5729 11.3193 12.5729 11.3089 12.5729C10.1644 12.5625 9.28514 12.2002 8.63483 11.465C6.98563 9.62198 7.3394 6.08605 7.34461 6.05498Z" fill="white"/>
<path d="M22.0258 20.3591C22.0258 20.3539 22.0258 20.3488 22.0258 20.3436C22.0258 20.3022 22.0206 20.2608 22.0206 20.2142C21.9893 19.1891 21.9217 16.7921 19.6638 16.0259C19.6482 16.0207 19.6274 16.0156 19.6118 16.0104C17.2655 15.415 15.3145 14.069 15.2937 14.0535C14.9763 13.8308 14.5393 13.9085 14.3156 14.2243C14.0919 14.5401 14.17 14.975 14.4873 15.1976C14.5758 15.2597 16.6464 16.6938 19.2372 17.3564C20.4494 17.7861 20.5847 19.0752 20.6211 20.2556C20.6211 20.3022 20.6211 20.3436 20.6263 20.385C20.6315 20.8509 20.6003 21.5706 20.517 21.9847C19.6742 22.461 16.3706 24.1073 11.345 24.1073C6.34016 24.1073 3.01575 22.4558 2.16774 21.9795C2.0845 21.5654 2.04808 20.8458 2.05849 20.3798C2.05849 20.3384 2.06369 20.297 2.06369 20.2504C2.10011 19.07 2.23537 17.7809 3.44756 17.3512C6.03842 16.6886 8.10902 15.2494 8.19746 15.1924C8.51482 14.9698 8.59285 14.5349 8.36915 14.2191C8.14544 13.9033 7.70843 13.8257 7.39107 14.0483C7.37026 14.0638 5.42972 15.4099 3.07298 16.0052C3.05217 16.0104 3.03656 16.0156 3.02095 16.0207C0.763059 16.7921 0.695426 19.1891 0.664211 20.209C0.664211 20.2556 0.664211 20.297 0.659009 20.3384C0.659009 20.3436 0.659009 20.3488 0.659009 20.3539C0.653806 20.6231 0.648604 22.0054 0.924337 22.6991C0.976363 22.8338 1.07001 22.9476 1.19487 23.0253C1.35094 23.1288 5.09156 25.4999 11.3502 25.4999C17.6088 25.4999 21.3494 23.1237 21.5055 23.0253C21.6252 22.9476 21.724 22.8338 21.776 22.6991C22.0362 22.0106 22.031 20.6283 22.0258 20.3591Z" fill="white"/>
</svg>
