<svg width="25" height="26" viewBox="0 0 25 26" fill="none" xmlns="http://www.w3.org/2000/svg">
<path d="M24.3573 18.9391L21.2493 15.8313C20.3925 14.9745 18.9982 14.9745 18.1413 15.8313L16.7286 17.2439C16.0795 17.893 15.0232 17.8928 14.3743 17.2442L8.25097 11.1159C7.60031 10.4652 7.60021 9.41216 8.25097 8.76143C8.47852 8.53389 9.13192 7.88052 9.66368 7.34878C10.5168 6.49576 10.5287 5.10586 9.66285 4.24014L6.55568 1.14287C5.69881 0.286084 4.30455 0.286084 3.44998 1.14063C2.81049 1.77451 2.60423 1.97901 2.3175 2.26323C-0.772477 5.35303 -0.772477 10.3805 2.31736 13.4702L12.0195 23.1771C15.1168 26.2742 20.1297 26.2744 23.2271 23.1771L24.3573 22.0469C25.2142 21.1901 25.2142 19.796 24.3573 18.9391ZM4.48371 2.17881C4.76932 1.89321 5.23399 1.89317 5.52053 2.17959L8.62769 5.27686C8.91399 5.56314 8.91399 6.02647 8.62769 6.3128L8.10965 6.83077L3.96836 2.68965L4.48371 2.17881ZM13.0557 22.1413L3.35349 12.4343C0.962853 10.0438 0.831451 6.29014 2.94937 3.74263L7.07865 7.87173C5.99364 9.10167 6.03886 10.9758 7.21474 12.1517L13.3379 18.2797C13.3379 18.2797 13.338 18.2798 13.3381 18.2798C14.5127 19.4545 16.3868 19.5026 17.6183 18.4162L21.7477 22.5454C19.2082 24.6595 15.4628 24.5483 13.0557 22.1413ZM23.3214 21.011L22.8034 21.529L18.6594 17.3852L19.1773 16.8672C19.463 16.5816 19.9277 16.5816 20.2134 16.8672L23.3214 19.9751C23.607 20.2607 23.607 20.7255 23.3214 21.011Z" fill="white"/>
</svg>
