<svg width="29" height="26" viewBox="0 0 29 26" fill="none" xmlns="http://www.w3.org/2000/svg">
<path d="M20.7852 0.5C18.4017 0.5 16.1704 1.50948 14.6848 3.20084C13.1992 1.50942 10.968 0.5 8.58438 0.5C4.22857 0.5 0.684814 3.81475 0.684814 7.88921C0.684814 11.0797 2.71866 14.77 6.72974 18.8576C9.81657 22.0032 13.1745 24.4388 14.1302 25.1104L14.6846 25.5L15.2391 25.1104C16.1947 24.4388 19.5528 22.0033 22.6397 18.8577C26.6509 14.7701 28.6848 11.0797 28.6848 7.88921C28.6848 3.81475 25.1411 0.5 20.7852 0.5ZM21.2796 17.6898C18.7406 20.2772 16.009 22.3687 14.6846 23.3326C13.3603 22.3687 10.6288 20.2771 8.0898 17.6898C4.45318 13.9838 2.53097 10.5948 2.53097 7.88921C2.53097 4.76701 5.24654 2.22688 8.58438 2.22688C10.7809 2.22688 12.8091 3.34671 13.8775 5.1494L14.6848 6.51168L15.4921 5.1494C16.5604 3.34676 18.5886 2.22688 20.7852 2.22688C24.1231 2.22688 26.8387 4.76695 26.8387 7.88921C26.8387 10.5949 24.9164 13.9839 21.2796 17.6898Z" fill="currentColor"/>
</svg>
