<svg width="28" height="26" viewBox="0 0 28 26" fill="none" xmlns="http://www.w3.org/2000/svg">
<path d="M20.1004 0C17.7169 0 15.4856 1.04986 14 2.80888C12.5144 1.0498 10.2832 0 7.89957 0C3.54375 0 0 3.44734 0 7.68478C0 11.0029 2.03385 14.8408 6.04492 19.0919C9.13175 22.3633 12.4897 24.8963 13.4454 25.5948L13.9998 26L14.5543 25.5948C15.5099 24.8964 18.868 22.3634 21.9549 19.092C25.9661 14.8409 28 11.0029 28 7.68478C28 3.44734 24.4562 0 20.1004 0ZM20.5948 17.8774C18.0558 20.5683 15.3242 22.7435 13.9998 23.746C12.6755 22.7435 9.944 20.5682 7.40498 17.8774C3.76837 14.0232 1.84615 10.4986 1.84615 7.68478C1.84615 4.43769 4.56172 1.79596 7.89957 1.79596C10.0961 1.79596 12.1243 2.96057 13.1927 4.83537L14 6.25214L14.8073 4.83537C15.8756 2.96063 17.9038 1.79596 20.1004 1.79596C23.4383 1.79596 26.1538 4.43763 26.1538 7.68478C26.1538 10.4987 24.2316 14.0233 20.5948 17.8774Z" fill="#3A3A3A"/>
</svg>
